<svg width="3557" height="540" viewBox="0 0 3557 540" fill="none" xmlns="http://www.w3.org/2000/svg">
<path d="M68.8641 201.628L68.8734 201.633L89.4547 214.049L89.4606 214.053L115.384 229.79L115.387 229.791L196.878 279.124V279.583V280.05V280.518V280.985V281.452V281.919V282.386V282.853V283.32V283.787V284.254V284.721V285.189V285.656V286.123V286.59V287.057V287.524V287.991V288.458V288.926V289.393V289.86V290.327V290.794V291.261V291.728V292.195V292.663V293.13V293.597V294.064V294.531V294.998V295.466V295.933V296.4V296.867V297.334V297.802V298.269V298.736V299.203V299.67V300.138V300.605V301.072V301.539V302.007V302.474V302.941V303.408V303.876V304.343V304.81V305.277V305.745V306.212V306.679V307.147V307.614V308.081V308.549V309.016V309.483V309.951V310.418V310.885V311.353V311.82V312.287V312.755V313.222V313.69V314.157V314.625V315.092V315.559V316.027V316.494V316.962V317.429V317.897V318.364V318.832V319.299V319.767V320.234V320.702V321.17V321.637V322.105V322.572V323.04V323.507V323.975V324.443V324.91V325.378V325.846V326.313V326.781V327.249V327.716V328.184V328.652V329.12V329.587V330.055V330.523V330.991V331.459V331.926V332.394V332.862V333.33V333.798V334.266V334.734V335.201V335.669V336.137V336.605V337.073V337.541V338.009V338.477V338.945V339.413V339.881V340.349V340.817V341.286V341.754V342.222V342.69V343.158V343.626V344.094V344.563V345.031V345.499V345.967V346.436V346.904V347.372V347.84V348.309V348.777V349.245V349.714V350.182V350.651V351.119V351.587V352.056V352.524V352.993V353.461V353.93V354.398V354.867V355.336V355.804V356.273V356.741V357.21V357.679V358.147V358.616V359.085V359.554V360.022V360.491V360.96V361.429V361.898V362.366V362.835V363.304V363.773V364.242V364.711V365.18V365.649V366.118V366.587V367.056V367.525V367.994V368.463V368.932V369.402V369.871V370.34V370.809V371.279V371.748V372.217V372.686V373.156V373.625V374.094V374.564V375.033V375.503V375.972V376.442V376.911V377.381V377.85V378.32V378.789V379.259V379.729V380.198V380.668V381.138V381.608V382.077V382.547V383.017V383.487V383.957V384.427V384.896V385.366V385.836V386.306V386.776V387.246V387.717V388.187V388.657V389.127V389.597V390.067V390.537V391.008V391.478V391.948V392.419V392.889V393.359V393.83V394.3V394.771V395.241V395.712V396.182V396.653V397.123V397.594V398.065V398.535V399.006V399.477V399.947V400.418V400.889V401.36V401.831V402.302V402.773V403.244V403.715V404.186V404.657V405.128V405.599V406.07V406.541V407.012V407.484V407.955V408.426V408.897V409.369V409.84V410.312V410.783V411.254V411.726V412.198V412.669V413.141V413.612V414.084V414.556V415.027V415.499V415.971V416.443V416.915V417.386V417.858V418.33V418.802V419.274V419.746V420.218V420.69V421.163V421.635V422.107V422.579V423.051V423.524V423.996V424.468V424.941V425.413V425.886V426.358V426.831V427.303V427.776V428.249V428.721V429.194V429.667V430.14V430.612V431.085V431.558V432.031V432.504V432.977V433.45V433.923V434.396V434.869V435.343V435.816V436.289V436.762V437.236V437.709V438.182V438.656V439.129V439.603V440.076V440.55V441.024V441.497V441.971V442.445V442.918V443.392V443.866V444.34V444.814V445.288V445.762V446.236V446.71V447.184V447.658V448.132V448.607V449.081V449.555V450.03V450.504V450.978V451.453V451.927V452.402V452.876V453.351V453.826V454.301V454.775V455.25V455.725V456.2V456.675V457.15V457.625V458.1V458.575V459.05V459.525V460V460.475V460.951V461.426V461.901V462.377V462.852V463.328V463.803V464.279V464.755V465.23V465.706V466.182V466.658V467.133V467.609V468.085V468.561V469.037V469.513V469.989V470.466V470.942V471.418V471.894V472.371V472.847V473.323V473.8V474.276V474.753V475.23V475.706V476.183V476.66V477.136V477.613V478.09V478.567V479.044V479.521V479.998V480.475V480.952V481.429V481.907V482.384V482.861V483.339V483.816V484.294V484.771V485.249V485.726V486.204V486.682V487.16V487.637V488.115V488.593V489.071V489.549V490.027V490.505V490.983V491.462V491.94V492.418V492.897V493.375V493.853V494.332V494.81V495.289V495.768V496.246V496.725V497.204V497.683V498.162V498.641V499.12V499.599V500.078V500.557V501.036V501.515V501.995V502.474V502.953V503.433V503.912V504.392V504.872V505.351V505.831V506.311V506.791V507.27V507.75V508.23V508.71V509.19V509.671V510.151V510.631V511.111V511.592V512.072V512.553V513.033V513.514V513.994V514.475V514.956V515.436V515.505C173.531 505.471 152.37 494.259 130.514 480.944L130.505 480.938L109.924 468.523L109.918 468.519L83.9941 452.782L83.9914 452.78L2.5 403.448V402.989V402.521V402.054V401.587V401.12V400.653V400.186V399.719V399.252V398.785V398.318V397.85V397.383V396.916V396.449V395.982V395.515V395.048V394.581V394.113V393.646V393.179V392.712V392.245V391.778V391.311V390.844V390.376V389.909V389.442V388.975V388.508V388.041V387.573V387.106V386.639V386.172V385.705V385.238V384.77V384.303V383.836V383.369V382.901V382.434V381.967V381.5V381.033V380.565V380.098V379.631V379.164V378.696V378.229V377.762V377.294V376.827V376.36V375.893V375.425V374.958V374.491V374.023V373.556V373.089V372.621V372.154V371.687V371.219V370.752V370.284V369.817V369.35V368.882V368.415V367.947V367.48V367.012V366.545V366.078V365.61V365.143V364.675V364.208V363.74V363.273V362.805V362.337V361.87V361.402V360.935V360.467V360V359.532V359.064V358.597V358.129V357.662V357.194V356.726V356.259V355.791V355.323V354.855V354.388V353.92V353.452V352.984V352.517V352.049V351.581V351.113V350.645V350.178V349.71V349.242V348.774V348.306V347.838V347.37V346.902V346.435V345.967V345.499V345.031V344.563V344.095V343.627V343.159V342.691V342.223V341.754V341.286V340.818V340.35V339.882V339.414V338.946V338.478V338.009V337.541V337.073V336.605V336.136V335.668V335.2V334.732V334.263V333.795V333.327V332.858V332.39V331.921V331.453V330.984V330.516V330.048V329.579V329.111V328.642V328.173V327.705V327.236V326.768V326.299V325.831V325.362V324.893V324.425V323.956V323.487V323.018V322.55V322.081V321.612V321.143V320.674V320.205V319.737V319.268V318.799V318.33V317.861V317.392V316.923V316.454V315.985V315.516V315.047V314.578V314.109V313.639V313.17V312.701V312.232V311.763V311.293V310.824V310.355V309.885V309.416V308.947V308.477V308.008V307.539V307.069V306.6V306.13V305.661V305.191V304.722V304.252V303.782V303.313V302.843V302.373V301.904V301.434V300.964V300.495V300.025V299.555V299.085V298.615V298.145V297.675V297.205V296.735V296.265V295.795V295.325V294.855V294.385V293.915V293.445V292.975V292.505V292.034V291.564V291.094V290.624V290.153V289.683V289.213V288.742V288.272V287.801V287.331V286.86V286.39V285.919V285.449V284.978V284.507V284.037V283.566V283.095V282.624V282.154V281.683V281.212V280.741V280.27V279.799V279.328V278.857V278.386V277.915V277.444V276.973V276.502V276.031V275.56V275.088V274.617V274.146V273.674V273.203V272.732V272.26V271.789V271.317V270.846V270.374V269.903V269.431V268.96V268.488V268.016V267.545V267.073V266.601V266.129V265.657V265.185V264.714V264.242V263.77V263.298V262.826V262.354V261.881V261.409V260.937V260.465V259.993V259.52V259.048V258.576V258.103V257.631V257.159V256.686V256.214V255.741V255.268V254.796V254.323V253.851V253.378V252.905V252.432V251.959V251.487V251.014V250.541V250.068V249.595V249.122V248.649V248.176V247.702V247.229V246.756V246.283V245.81V245.336V244.863V244.389V243.916V243.443V242.969V242.496V242.022V241.548V241.075V240.601V240.127V239.653V239.18V238.706V238.232V237.758V237.284V236.81V236.336V235.862V235.388V234.914V234.439V233.965V233.491V233.017V232.542V232.068V231.594V231.119V230.645V230.17V229.695V229.221V228.746V228.271V227.797V227.322V226.847V226.372V225.897V225.422V224.947V224.472V223.997V223.522V223.047V222.572V222.096V221.621V221.146V220.67V220.195V219.72V219.244V218.768V218.293V217.817V217.342V216.866V216.39V215.914V215.438V214.963V214.487V214.011V213.535V213.059V212.582V212.106V211.63V211.154V210.678V210.201V209.725V209.248V208.772V208.296V207.819V207.342V206.866V206.389V205.912V205.436V204.959V204.482V204.005V203.528V203.051V202.574V202.097V201.62V201.142V200.665V200.188V199.711V199.233V198.756V198.278V197.801V197.323V196.845V196.368V195.89V195.412V194.935V194.457V193.979V193.501V193.023V192.545V192.067V191.588V191.11V190.632V190.154V189.675V189.197V188.719V188.24V187.761V187.283V186.804V186.326V185.847V185.368V184.889V184.41V183.931V183.452V182.973V182.494V182.015V181.536V181.057V180.577V180.098V179.618V179.139V178.659V178.18V177.7V177.221V176.741V176.261V175.781V175.301V174.821V174.342V173.861V173.381V172.901V172.421V171.941V171.46V170.98V170.5V170.019V169.539V169.058V168.578V168.097V167.616V167.135V167.067C25.8474 177.101 47.0085 188.313 68.8641 201.628Z" fill="#FCF20B" stroke="black" stroke-width="5"/>
<path d="M417.37 261.747L417.37 261.735C416.732 229.741 415.781 197.787 414.484 165.819C413.49 165.861 412.618 165.959 411.637 166.187C409.93 166.584 407.778 167.408 404.209 169.232C397.033 172.9 384.767 180.272 359.973 195.177L359.969 195.18L349.185 201.636L349.182 201.638L328.506 214.055L328.504 214.056C302.37 229.72 302.243 229.796 220.004 279.131V279.158V279.639V280.12V280.601V281.082V281.563V282.044V282.525V283.005V283.486V283.967V284.447V284.928V285.408V285.888V286.369V286.849V287.329V287.809V288.289V288.769V289.249V289.729V290.209V290.689V291.169V291.648V292.128V292.608V293.087V293.567V294.046V294.526V295.005V295.484V295.964V296.443V296.922V297.401V297.88V298.359V298.838V299.317V299.796V300.275V300.753V301.232V301.711V302.189V302.668V303.146V303.625V304.103V304.582V305.06V305.538V306.016V306.494V306.973V307.451V307.929V308.407V308.884V309.362V309.84V310.318V310.796V311.273V311.751V312.229V312.706V313.184V313.661V314.138V314.616V315.093V315.57V316.047V316.525V317.002V317.479V317.956V318.433V318.91V319.386V319.863V320.34V320.817V321.294V321.77V322.247V322.723V323.2V323.676V324.153V324.629V325.105V325.582V326.058V326.534V327.01V327.486V327.962V328.438V328.914V329.39V329.866V330.342V330.818V331.294V331.769V332.245V332.721V333.196V333.672V334.147V334.623V335.098V335.574V336.049V336.524V336.999V337.475V337.95V338.425V338.9V339.375V339.85V340.325V340.8V341.275V341.75V342.224V342.699V343.174V343.649V344.123V344.598V345.072V345.547V346.021V346.496V346.97V347.445V347.919V348.393V348.867V349.342V349.816V350.29V350.764V351.238V351.712V352.186V352.66V353.134V353.607V354.081V354.555V355.029V355.503V355.976V356.45V356.923V357.397V357.87V358.344V358.817V359.291V359.764V360.237V360.711V361.184V361.657V362.13V362.603V363.077V363.55V364.023V364.496V364.969V365.442V365.914V366.387V366.86V367.333V367.806V368.278V368.751V369.224V369.696V370.169V370.641V371.114V371.586V372.059V372.531V373.004V373.476V373.948V374.42V374.893V375.365V375.837V376.309V376.781V377.253V377.725V378.197V378.669V379.141V379.613V380.085V380.557V381.029V381.501V381.972V382.444V382.916V383.387V383.859V384.331V384.802V385.274V385.745V386.217V386.688V387.16V387.631V388.102V388.574V389.045V389.516V389.987V390.459V390.93V391.401V391.872V392.343V392.814V393.285V393.756V394.227V394.698V395.169V395.64V396.111V396.581V397.052V397.523V397.994V398.464V398.935V399.406V399.876V400.347V400.818V401.288V401.759V402.229V402.7V403.17V403.64V404.111V404.581V405.051V405.522V405.992V406.462V406.932V407.403V407.873V408.343V408.813V409.283V409.753V410.223V410.693V411.163V411.633V412.103V412.573V413.043V413.513V413.983V414.453V414.922V415.392V415.862V416.332V416.801V417.271V417.741V418.21V418.68V419.149V419.619V420.089V420.558V421.028V421.497V421.966V422.436V422.905V423.375V423.844V424.313V424.783V425.252V425.721V426.19V426.66V427.129V427.598V428.067V428.536V429.005V429.475V429.944V430.413V430.882V431.351V431.82V432.289V432.758V433.227V433.696V434.164V434.633V435.102V435.571V436.04V436.509V436.977V437.446V437.915V438.384V438.852V439.321V439.79V440.258V440.727V441.196V441.664V442.133V442.601V443.07V443.538V444.007V444.475V444.944V445.412V445.881V446.349V446.818V447.286V447.754V448.223V448.691V449.159V449.628V450.096V450.564V451.032V451.501V451.969V452.437V452.905V453.374V453.842V454.31V454.778V455.246V455.714V456.182V456.65V457.118V457.586V458.054V458.522V458.991V459.458V459.926V460.394V460.862V461.33V461.798V462.266V462.734V463.202V463.67V464.138V464.605V465.073V465.541V466.009V466.477V466.945V467.412V467.88V468.348V468.816V469.283V469.751V470.219V470.686V471.154V471.622V472.089V472.557V473.025V473.492V473.96V474.427V474.895V475.363V475.83V476.298V476.765V477.233V477.7V478.168V478.635V479.103V479.57V480.038V480.505V480.973V481.44V481.908V482.375V482.843V483.31V483.777V484.245V484.712V485.18V485.647V486.114V486.582V487.049V487.516V487.984V488.451V488.918V489.386V489.853V490.32V490.788V491.255V491.722V492.19V492.657V493.124V493.591V494.059V494.526V494.993V495.46V495.928V496.395V496.862V497.329V497.797V498.264V498.731V499.198V499.665V500.133V500.6V501.067V501.534V502.001V502.468V502.936V503.403V503.87V504.337V504.804V505.271V505.738V506.206V506.673V507.14V507.607V508.074V508.541V509.008V509.476V509.943V510.41V510.877V511.344V511.811V512.278V512.745V513.212V513.68V514.147V514.614V515.081V515.548V516.015V516.482V516.71C220.519 516.659 221.019 516.574 221.579 516.432C222.99 516.073 224.883 515.318 228.166 513.624C234.746 510.228 246.27 503.404 269.539 489.622L269.544 489.619M417.37 261.747L270.818 491.77L269.544 489.619M417.37 261.747C417.643 272.912 418.014 284.076 418.487 295.234M417.37 261.747L420.984 295.129M269.544 489.619L288.726 478.199L288.736 478.194C301.072 470.923 313.396 463.629 325.707 456.312M269.544 489.619L325.707 456.312M325.707 456.312C325.698 456.318 325.689 456.323 325.68 456.329L327.011 458.445L325.734 456.296C325.725 456.301 325.716 456.307 325.707 456.312ZM325.707 456.312C337.472 448.914 349.308 441.635 361.222 434.498L361.37 434.409L361.529 434.341C377.492 427.563 391.233 421.196 405.267 411.201M325.707 456.312L407.085 412.974M405.267 411.201C405.183 411.324 405.099 411.448 405.015 411.573L407.085 412.974M405.267 411.201C405.387 411.115 405.508 411.028 405.629 410.942L407.085 412.974M405.267 411.201C413.909 398.43 417.957 392.311 419.603 378.356C421.31 363.879 420.384 341.221 418.487 295.234M407.085 412.974C411.919 405.832 415.432 400.643 417.907 394.998C424.486 379.994 423.735 361.776 420.984 295.129M418.487 295.234L420.984 295.129M418.487 295.234C418.487 295.234 418.487 295.233 418.487 295.232L420.984 295.129" fill="#0000FA" stroke="black" stroke-width="5"/>
<path d="M302.448 64.5145L302.453 64.5176C312.895 71.2657 323.454 77.7504 334.019 84.2108C334.026 84.2148 334.032 84.2187 334.039 84.2227L353.99 96.9253L353.991 96.926L372.034 108.399C378.578 114.576 381.479 117.361 383.301 120.514C385.083 123.595 385.876 127.101 387.545 134.991C385.88 142.545 385.091 145.952 383.653 148.739C382.225 151.507 380.124 153.723 375.267 158.728L361.84 167.146L361.828 167.153L361.816 167.161L346.786 176.825L346.747 176.849L330.985 186.581L330.956 186.599L330.928 186.617L316.166 196.298C301.588 205.849 286.864 215.108 272.069 224.332L272.051 224.342L272.034 224.353L256.992 234.076L256.972 234.088L242.336 243.177L242.327 243.182L242.319 243.187L229.479 251.3C221.109 254.531 215.115 255.584 209.191 255.206C203.167 254.822 197.038 252.954 188.299 249.979C175.522 243.093 162.98 235.693 150.625 227.959L150.621 227.957L139.912 221.282C139.911 221.281 139.91 221.281 139.909 221.28C139.909 221.28 139.909 221.28 139.909 221.28C132.478 216.635 125.06 211.967 117.654 207.278L117.653 207.277C106.329 200.114 94.9639 193.033 83.5966 185.966C53.3176 166.981 38.3172 157.573 28.8898 150.575C20.3777 144.255 16.4847 139.96 9.83637 132.11C30.9289 119.261 52.0265 106.42 73.1286 93.5877L73.129 93.5874C80.5848 89.0517 88.0391 84.5133 95.492 79.9722C106.225 73.4329 116.964 66.9031 127.705 60.3746L127.706 60.3738L147.242 48.4835C147.246 48.4814 147.25 48.4792 147.253 48.477C177.781 30.3406 200.086 18.2013 234.82 25.8047C258.396 36.8955 280.378 50.1805 302.448 64.5145ZM155.385 186.458L166.484 193.603L166.51 193.62L166.536 193.636C182.808 203.554 195.358 210.369 215.059 209.931L215.525 209.92L215.956 209.743C234.07 202.279 249.266 192.746 265.365 181.631C265.367 181.63 265.369 181.628 265.371 181.627L282.801 169.74L282.81 169.734L282.969 169.624C290.262 164.602 294.095 161.963 297.548 158.932C301.003 155.9 304.059 152.493 309.865 146.019L309.993 145.877L310.629 145.168L310.631 144.216L310.632 143.885C310.651 137.819 310.662 134.351 309.837 130.882C309.02 127.441 307.392 124.049 304.498 118.02L304.344 117.698L304.141 117.276L303.8 116.956L303.689 116.853C297.873 111.396 294.829 108.54 291.425 105.931C288.028 103.327 284.289 100.981 277.122 96.4842L277.022 96.4217L262.567 86.6373L262.511 86.599L262.452 86.5638C238.028 71.911 215.987 67.8941 194.57 71.4481C173.268 74.9829 152.837 85.969 131.513 100.82L119.098 109.074L119.095 109.076C109.065 115.766 99.1212 122.591 89.2071 129.437L86.9191 131.017L88.7324 133.124C108.372 155.953 130.484 171.354 155.385 186.458Z" fill="url(#paint0_linear_204_169)" stroke="black" stroke-width="5"/>
<path d="M262.729 83.997L262.745 84.0071L262.761 84.0169L278.442 93.576C291.631 103.274 301.378 110.507 310.29 124.636C310.253 131.473 310.203 134.693 309.501 137.968C308.783 141.318 307.374 144.765 304.335 152.079C298.156 158.3 294.863 161.61 291.383 164.709C287.448 168.213 283.273 171.447 274.417 178.312L274.408 178.319L274.4 178.326L257.674 191.52L241.594 203.215L241.587 203.22L241.58 203.225L229.064 212.463C220.537 216.066 214.477 217.133 208.491 216.597C202.356 216.048 196.108 213.812 187.088 210.363C170.199 200.677 154.123 189.665 137.931 178.245L137.908 178.229L137.885 178.214L124.594 169.275C113.902 161.805 103.642 153.459 93.4282 144.931V144.9V144.857V144.814V144.771V144.728V144.685V144.642V144.599V144.557V144.514V144.471V144.428V144.385V144.342V144.299V144.256V144.214V144.171V144.128V144.085V144.042V143.999V143.956V143.913V143.87V143.827V143.785V143.742V143.699V143.656V143.613V143.57V143.527V143.484V143.441V143.399V143.356V143.313V143.27V143.227V143.184V143.141V143.098V143.055V143.012V142.969V142.927V142.884V142.841V142.798V142.755V142.712V142.669V142.626V142.583V142.54V142.497V142.455V142.412V142.369V142.326V142.283V142.24V142.197V142.154V142.111V142.068V142.025V141.982V141.94V141.897V141.854V141.811V141.768V141.725V141.682V141.639V141.596V141.553V141.51V141.467V141.424V141.381V141.338V141.296V141.253V141.21V141.167V141.124V141.081V141.038V140.995V140.952V140.909V140.866V140.823V140.78V140.737V140.694V140.651V140.608V140.565V140.522V140.479V140.436V140.393V140.351V140.308V140.265V140.222V140.179V140.136V140.093V140.05V140.007V139.964V139.921V139.878V139.835V139.792V139.749V139.706V139.663V139.62V139.577V139.534V139.491V139.448V139.405V139.362V139.319V139.276V139.233V139.19V139.147V139.104V139.061V139.018V138.975V138.932V138.889V138.846V138.803V138.76V138.717V138.674V138.631V138.588V138.545V138.502V138.458V138.415V138.372V138.329V138.286V138.243V138.2V138.157V138.114V138.071V138.028V137.985V137.942V137.899V137.856V137.813V137.77V137.727V137.684V137.64V137.597V137.554V137.511V137.468V137.425V137.382V137.339V137.296V137.253V137.21V137.167V137.123V137.08V137.037V136.994V136.951V136.908V136.865V136.822V136.779V136.736V136.692V136.649V136.606V136.563V136.52V136.477V136.434V136.391V136.347V136.304V136.261V136.218V136.175V136.132V136.089V136.045V136.002V135.959V135.916V135.873V135.83V135.786V135.743V135.7V135.657V135.614V135.571V135.527V135.484V135.441V135.398V135.355V135.311V135.268V135.225V135.182V135.139V135.095V135.052V135.009V134.966V134.923V134.879V134.836V134.793V134.75V134.707V134.663V134.62V134.577V134.534V134.49V134.447V134.404V134.361V134.317V134.274V134.231V134.188V134.144V134.101V134.058V134.015V133.971V133.928V133.885V133.841V133.798V133.755V133.712V133.668V133.625V133.582V133.538V133.495V133.452V133.408V133.365V133.322V133.279V133.235V133.192V133.149V133.105V133.062V133.019V132.975V132.932V132.889V132.845V132.802V132.758V132.715V132.672V132.628V132.585V132.542V132.498V132.455V132.412V132.368V132.325V132.281V132.238V132.195V132.151V132.108V132.064V132.021V131.978V131.934V131.891V131.847V131.804V131.76V131.717V131.674V131.63V131.587V131.543V131.5V131.456V131.413V131.369V131.326V131.283V131.239V131.196V131.152V131.109V131.065V131.022V130.978V130.935V130.891V130.848V130.804V130.761V130.717V130.674V130.63V130.587V130.543V130.5V130.456V130.413V130.369V130.325V130.282V130.238V130.195V130.151V130.108V130.064V130.021V129.977V129.933V129.89V129.846V129.803V129.759V129.715V129.672V129.628V129.585V129.541V129.497V129.454V129.41V129.367V129.323V129.279V129.236V129.192V129.148V129.105V129.061V129.017V128.974V128.93V128.886V128.843V128.799V128.755V128.712V128.668V128.624V128.581V128.537V128.493V128.45V128.406V128.362V128.318V128.275V128.231V128.187V128.144V128.1V128.056V128.012V127.969V127.925V127.881V127.837V127.794V127.75V127.706V127.662V127.618V127.575V127.531V127.487V127.443V127.399V127.356V127.312V127.268V127.224V127.18V127.136V127.093V127.049V127.005V126.961V126.917V126.873V126.83V126.786V126.742V126.698V126.654V126.61V126.566V126.522V126.478V126.435V126.391V126.347V126.303V126.259V126.215V126.171V126.127V126.083V126.039V125.995V125.951V125.907V125.863V125.819V125.775V125.731V125.688V125.644V125.6V125.556V125.512V125.468V125.424V125.38V125.335V125.291V125.247V125.203V125.191C106.736 115.439 120.112 105.882 133.572 96.4001L133.596 96.3829L133.62 96.3652L145.128 87.8409C162.649 75.6732 178.445 68.4274 194.68 66.13C210.845 63.8424 227.69 66.4273 247.395 74.3291L262.729 83.997Z" fill="url(#paint1_linear_204_169)" stroke="black" stroke-width="5"/>
<rect x="219.731" y="271.956" width="82.3566" height="210.034" transform="rotate(-26.4248 219.731 271.956)" fill="white" stroke="black" stroke-width="5"/>
<path d="M705.84 143.28V192.6H602.88V245.88H679.92V293.76H602.88V396H541.32V143.28H705.84ZM817.755 143.28V396H756.195V143.28H817.755ZM1106.45 396H1044.89L941.927 240.12V396H880.367V143.28H941.927L1044.89 299.88V143.28H1106.45V396ZM1326.39 351.36H1232.07L1216.95 396H1152.51L1243.95 143.28H1315.23L1406.67 396H1341.51L1326.39 351.36ZM1310.55 303.84L1279.23 211.32L1248.27 303.84H1310.55ZM1678.58 396H1617.02L1514.06 240.12V396H1452.5V143.28H1514.06L1617.02 299.88V143.28H1678.58V396ZM1730.76 269.28C1730.76 244.32 1736.16 222.12 1746.96 202.68C1757.76 183 1772.76 167.76 1791.96 156.96C1811.4 145.92 1833.36 140.4 1857.84 140.4C1887.84 140.4 1913.52 148.32 1934.88 164.16C1956.24 180 1970.52 201.6 1977.72 228.96H1910.04C1905 218.4 1897.8 210.36 1888.44 204.84C1879.32 199.32 1868.88 196.56 1857.12 196.56C1838.16 196.56 1822.8 203.16 1811.04 216.36C1799.28 229.56 1793.4 247.2 1793.4 269.28C1793.4 291.36 1799.28 309 1811.04 322.2C1822.8 335.4 1838.16 342 1857.12 342C1868.88 342 1879.32 339.24 1888.44 333.72C1897.8 328.2 1905 320.16 1910.04 309.6H1977.72C1970.52 336.96 1956.24 358.56 1934.88 374.4C1913.52 390 1887.84 397.8 1857.84 397.8C1833.36 397.8 1811.4 392.4 1791.96 381.6C1772.76 370.56 1757.76 355.32 1746.96 335.88C1736.16 316.44 1730.76 294.24 1730.76 269.28ZM2094.98 192.6V243.72H2177.42V291.24H2094.98V346.68H2188.22V396H2033.42V143.28H2188.22V192.6H2094.98ZM2330.04 269.28C2330.04 244.32 2335.44 222.12 2346.24 202.68C2357.04 183 2372.04 167.76 2391.24 156.96C2410.68 145.92 2432.64 140.4 2457.12 140.4C2487.12 140.4 2512.8 148.32 2534.16 164.16C2555.52 180 2569.8 201.6 2577 228.96H2509.32C2504.28 218.4 2497.08 210.36 2487.72 204.84C2478.6 199.32 2468.16 196.56 2456.4 196.56C2437.44 196.56 2422.08 203.16 2410.32 216.36C2398.56 229.56 2392.68 247.2 2392.68 269.28C2392.68 291.36 2398.56 309 2410.32 322.2C2422.08 335.4 2437.44 342 2456.4 342C2468.16 342 2478.6 339.24 2487.72 333.72C2497.08 328.2 2504.28 320.16 2509.32 309.6H2577C2569.8 336.96 2555.52 358.56 2534.16 374.4C2512.8 390 2487.12 397.8 2457.12 397.8C2432.64 397.8 2410.68 392.4 2391.24 381.6C2372.04 370.56 2357.04 355.32 2346.24 335.88C2335.44 316.44 2330.04 294.24 2330.04 269.28ZM2851.58 143.28V396H2790.02V291.96H2694.26V396H2632.7V143.28H2694.26V242.28H2790.02V143.28H2851.58ZM2975.58 192.6V243.72H3058.02V291.24H2975.58V346.68H3068.82V396H2914.02V143.28H3068.82V192.6H2975.58ZM3218.22 398.52C3199.74 398.52 3183.18 395.52 3168.54 389.52C3153.9 383.52 3142.14 374.64 3133.26 362.88C3124.62 351.12 3120.06 336.96 3119.58 320.4H3185.1C3186.06 329.76 3189.3 336.96 3194.82 342C3200.34 346.8 3207.54 349.2 3216.42 349.2C3225.54 349.2 3232.74 347.16 3238.02 343.08C3243.3 338.76 3245.94 332.88 3245.94 325.44C3245.94 319.2 3243.78 314.04 3239.46 309.96C3235.38 305.88 3230.22 302.52 3223.98 299.88C3217.98 297.24 3209.34 294.24 3198.06 290.88C3181.74 285.84 3168.42 280.8 3158.1 275.76C3147.78 270.72 3138.9 263.28 3131.46 253.44C3124.02 243.6 3120.3 230.76 3120.3 214.92C3120.3 191.4 3128.82 173.04 3145.86 159.84C3162.9 146.4 3185.1 139.68 3212.46 139.68C3240.3 139.68 3262.74 146.4 3279.78 159.84C3296.82 173.04 3305.94 191.52 3307.14 215.28H3240.54C3240.06 207.12 3237.06 200.76 3231.54 196.2C3226.02 191.4 3218.94 189 3210.3 189C3202.86 189 3196.86 191.04 3192.3 195.12C3187.74 198.96 3185.46 204.6 3185.46 212.04C3185.46 220.2 3189.3 226.56 3196.98 231.12C3204.66 235.68 3216.66 240.6 3232.98 245.88C3249.3 251.4 3262.5 256.68 3272.58 261.72C3282.9 266.76 3291.78 274.08 3299.22 283.68C3306.66 293.28 3310.38 305.64 3310.38 320.76C3310.38 335.16 3306.66 348.24 3299.22 360C3292.02 371.76 3281.46 381.12 3267.54 388.08C3253.62 395.04 3237.18 398.52 3218.22 398.52ZM3548.07 143.28V192.6H3481.11V396H3419.55V192.6H3352.59V143.28H3548.07Z" fill="#161616"/>
<defs>
<linearGradient id="paint0_linear_204_169" x1="198.073" y1="21" x2="198.073" y2="257.779" gradientUnits="userSpaceOnUse">
<stop offset="0.314517" stop-color="#F6D745"/>
<stop offset="0.500014" stop-color="white"/>
<stop offset="0.624517" stop-color="#F6D745"/>
</linearGradient>
<linearGradient id="paint1_linear_204_169" x1="201.861" y1="62.8301" x2="201.861" y2="219.227" gradientUnits="userSpaceOnUse">
<stop offset="0.174517" stop-color="#F6D745"/>
<stop offset="0.459517" stop-color="white"/>
<stop offset="0.504517" stop-color="white"/>
<stop offset="0.714517" stop-color="#EECA42"/>
</linearGradient>
</defs>
</svg>
