<svg width="1184" height="183" viewBox="0 0 1184 183" fill="none" xmlns="http://www.w3.org/2000/svg">
<rect x="12" y="20" width="155" height="126" fill="white" stroke="#FDBD0A"/>
<path d="M6 66C23.9084 66 35.6752 66.1329 48.2031 78.1055C54.1601 84.5147 57.3158 90.7491 60 99C60.4009 98.1054 60.8018 97.2108 61.2148 96.2891C66.9499 83.9139 74.3338 73.9977 87 68C96.6001 65.5453 106.527 65.7321 116.363 65.8047C117.72 65.8076 119.077 65.8097 120.434 65.8108C125.394 65.8212 130.353 65.8491 135.312 65.875C146.429 65.9162 157.546 65.9575 169 66C169 98.67 169 131.34 169 165C115.21 165 61.42 165 6 165C6 132.33 6 99.66 6 66Z" fill="#1658FD" stroke="#FDBD0A" stroke-width="1.58175"/>
<path d="M164.668 2.50019C166.218 4.51258 166.401 5.85722 166.627 8.35822C166.707 9.21371 166.788 10.0692 166.871 10.9506C166.941 11.8693 167.011 12.788 167.083 13.7346C167.164 14.6772 167.244 15.6198 167.327 16.591C168.091 26.417 168.08 36.2223 167.895 46.069C157.942 49.3104 146.124 48.3093 135.752 48.5265C123.121 48.0902 123.121 48.0902 111.948 51.9258C109.088 51.9973 106.253 52.016 103.394 51.9868C102.588 51.9824 101.782 51.978 100.952 51.9735C98.9563 51.9619 96.9602 51.9444 94.964 51.9258C94.964 51.2815 94.964 50.6373 94.964 49.9735C94.4077 49.9962 93.8513 50.0188 93.2781 50.0422C83.4997 50.2681 77.416 48.4896 69.9877 42.1645C69.367 41.6385 68.7462 41.1125 68.1067 40.5706C60.5505 33.6992 57.5193 27.1625 57.0429 17.0862C57.0288 16.3426 57.0146 15.5989 57 14.8327C62.5646 12.5757 67.866 12.4931 73.7966 12.3314C75.6973 12.2732 77.5978 12.2111 79.4982 12.1446C80.3338 12.1212 81.1694 12.0978 82.0302 12.0738C83.979 12.1086 83.979 12.1086 84.9735 10.9282C87.5787 10.7437 90.1699 10.6075 92.7786 10.5011C99.9486 10.1587 106.895 9.36699 113.946 7.9998C113.946 7.35555 113.946 6.7113 113.946 6.04753C120.86 5.27648 127.777 4.53026 134.697 3.80142C137.051 3.55043 139.405 3.2937 141.758 3.03119C145.137 2.6553 148.517 2.29991 151.898 1.94853C153.481 1.76572 153.481 1.76572 155.096 1.57922C156.076 1.48129 157.056 1.38335 158.066 1.28245C158.929 1.18924 159.792 1.09603 160.681 1C162.9 1.16686 162.9 1.16686 164.668 2.50019Z" fill="#FDBD0A" stroke="#FDBD0A" stroke-width="1.58175"/>
<path d="M63 12C62.67 12.66 62.34 13.32 62 14C60.35 14 58.7 14 57 14C57.495 18.455 57.495 18.455 58 23C57.67 23 57.34 23 57 23C56.6713 24.251 56.6713 24.251 56.3359 25.5273C54.2294 33.003 51.7488 38.8641 47 45C46.2781 46.0313 45.5563 47.0625 44.8125 48.125C39.1316 54.6799 29.4284 60.0845 21 62C15.9698 62.3026 11.0361 62.2417 6.00001 62C5.9196 61.295 5.83919 60.5901 5.75635 59.8638C5.38355 56.617 5.00431 53.371 4.62501 50.125C4.49868 49.0164 4.37235 47.9078 4.24219 46.7656C3.65088 41.7395 3.00689 36.8073 1.89844 31.8672C0.759131 26.5718 0.815443 21.3933 1.00001 16C45.6151 11.2245 45.6151 11.2245 63 12Z" fill="#FCC016" stroke="#FDBD0A" stroke-width="1.58175"/>
<path d="M3.00002 37C3.33002 37 3.66002 37 4.00002 37C4.33823 39.8537 4.67071 42.7078 5.00002 45.5625C5.09541 46.3624 5.1908 47.1622 5.28908 47.9863C5.82716 52.6945 6.10178 57.2615 6.00002 62C8.97002 62 11.94 62 15 62C14.01 62.66 13.02 63.32 12 64C15.96 64.33 19.92 64.66 24 65C24 65.33 24 65.66 24 66C18.06 66 12.12 66 6.00002 66C6.00002 98.67 6.00002 131.34 6.00002 165C5.67002 165 5.34002 165 5.00002 165C4.99367 164.18 4.99367 164.18 4.98719 163.344C4.88357 150.005 4.77483 136.665 4.66068 123.326C4.60562 116.875 4.55223 110.423 4.5027 103.972C4.4548 97.7413 4.40245 91.5103 4.34708 85.2793C4.32677 82.9076 4.30804 80.5359 4.29094 78.1642C4.26664 74.8304 4.23662 71.4966 4.20534 68.1628C4.19958 67.1925 4.19383 66.2222 4.1879 65.2224C4.12848 59.6148 3.8029 54.0984 3.21765 48.5204C2.88519 44.6702 2.9367 40.8623 3.00002 37Z" fill="#FDBD0A" stroke="#FDBD0A" stroke-width="1.58175"/>
<path d="M5 165C58.46 165 111.92 165 167 165C167 165.33 167 165.66 167 166C113.54 166 60.08 166 5 166C5 165.67 5 165.34 5 165Z" fill="#D3DFF9" stroke="#FDBD0A" stroke-width="1.58175"/>
<path d="M168 36C168.33 36 168.66 36 169 36C169.495 41.445 169.495 41.445 170 47C157.389 48.8293 144.729 50.1519 132.048 51.397C129.682 51.6324 127.316 51.8749 124.952 52.1245C94.2997 55.3548 94.2997 55.3548 82 50C85.1218 49.0334 87.5208 49.0101 90.75 49.4375C91.5492 49.5393 92.3484 49.6412 93.1719 49.7461C93.7752 49.8299 94.3784 49.9137 95 50C95 50.66 95 51.32 95 52C97.8129 51.8598 100.625 51.7131 103.438 51.5625C104.24 51.5232 105.042 51.4839 105.869 51.4434C109.752 51.5946 109.752 51.5946 113 50C121.713 47.9747 130.468 47.6305 139.375 47.4375C148.949 47.1982 158.454 46.7618 168 46C168 42.7 168 39.4 168 36Z" fill="#FDBD0A" stroke="#FDBD0A" stroke-width="1.58175"/>
<path d="M132 6.03453C125.1 11.2806 111.209 10.2958 101.949 10.5882C97.3006 10.4208 97.3006 10.4208 93.4286 11.8995C90.2808 11.986 87.1694 12.0122 84.0218 11.995C83.0818 11.9936 82.1419 11.9922 81.1735 11.9908C78.1603 11.9853 75.1471 11.973 72.1339 11.9606C70.0957 11.9557 68.0575 11.9513 66.0193 11.9473C61.0128 11.9365 56.0064 11.9196 51 11.8995C51 11.577 51 11.2544 51 10.922C60.0548 10.2177 69.1108 9.52272 78.1676 8.83387C81.2428 8.5989 84.3177 8.36188 87.3924 8.1227C91.8345 7.7775 96.2776 7.43991 100.721 7.10367C102.076 6.99676 103.43 6.88985 104.826 6.77971C113.912 6.10189 122.873 5.91278 132 6.03453Z" fill="#FDBD0A" stroke="#FDBD0A"/>
<path d="M169 65C169.33 65 169.66 65 170 65C170 98.33 170 131.66 170 166C169.01 165.67 168.02 165.34 167 165C167.66 165 168.32 165 169 165C169 132 169 99 169 65Z" fill="#D3DFF9" stroke="#FDBD0A" stroke-width="1.58175"/>
<path d="M104.063 64.773C105.118 64.7725 105.118 64.7725 106.193 64.7721C108.509 64.7735 110.825 64.789 113.141 64.8047C114.749 64.8084 116.358 64.8113 117.966 64.8133C122.195 64.8209 126.423 64.8405 130.651 64.8627C134.968 64.8832 139.285 64.8923 143.602 64.9023C152.068 64.9238 160.534 64.9579 169 65C169 65.33 169 65.66 169 66C131.38 66.495 131.38 66.495 93 67C97.3098 64.8451 99.3273 64.7564 104.063 64.773Z" fill="#D3DFF9" stroke="#FDBD0A" stroke-width="1.58175"/>
<path d="M195.32 55.936H255.992V75.392H222.84V93.184H253.56V109.312H222.84V144H195.32V55.936ZM268.32 55.936H297.888V144H268.32V55.936ZM314.57 55.936H340.298L375.37 103.424V55.936H398.282V144H372.682L337.354 98.176V144H314.57V55.936ZM431.585 55.936H470.497L495.969 144H465.889L462.561 127.104H439.777L436.065 144H407.265L431.585 55.936ZM459.489 111.36L451.169 72.832L442.465 111.36H459.489ZM504.445 55.936H530.173L565.245 103.424V55.936H588.157V144H562.557L527.229 98.176V144H504.445V55.936ZM646.292 146.048C637.759 146.048 629.993 144.043 622.996 140.032C616.084 135.936 610.58 130.389 606.484 123.392C602.473 116.309 600.468 108.501 600.468 99.968C600.468 91.264 602.431 83.4133 606.356 76.416C610.281 69.4187 615.657 63.9573 622.484 60.032C629.311 56.0213 636.991 54.016 645.524 54.016C650.132 54.016 654.655 54.5707 659.092 55.68C663.529 56.7893 667.327 58.368 670.484 60.416L667.028 80.256C660.884 77.952 655.337 76.8 650.388 76.8C643.561 76.8 638.313 78.8053 634.644 82.816C630.975 86.7413 629.14 92.416 629.14 99.84C629.14 107.093 631.06 112.768 634.9 116.864C638.825 120.875 644.244 122.88 651.156 122.88C653.801 122.88 656.276 122.624 658.58 122.112C660.884 121.6 663.7 120.661 667.028 119.296L670.612 139.52C663.188 143.872 655.081 146.048 646.292 146.048ZM682.07 55.936H743.894V75.392H713.174V91.392H741.206V107.52H713.174V124.544H743.894V144H682.07V55.936ZM823.542 146.048C815.009 146.048 807.243 144.043 800.246 140.032C793.334 135.936 787.83 130.389 783.734 123.392C779.723 116.309 777.718 108.501 777.718 99.968C777.718 91.264 779.681 83.4133 783.606 76.416C787.531 69.4187 792.907 63.9573 799.734 60.032C806.561 56.0213 814.241 54.016 822.774 54.016C827.382 54.016 831.905 54.5707 836.342 55.68C840.779 56.7893 844.577 58.368 847.734 60.416L844.278 80.256C838.134 77.952 832.587 76.8 827.638 76.8C820.811 76.8 815.563 78.8053 811.894 82.816C808.225 86.7413 806.39 92.416 806.39 99.84C806.39 107.093 808.31 112.768 812.15 116.864C816.075 120.875 821.494 122.88 828.406 122.88C831.051 122.88 833.526 122.624 835.83 122.112C838.134 121.6 840.95 120.661 844.278 119.296L847.862 139.52C840.438 143.872 832.331 146.048 823.542 146.048ZM859.32 55.936H888.12V91.008H915.384V55.936H944.312V144H915.384V109.44H888.12V144H859.32V55.936ZM960.945 55.936H1022.77V75.392H992.049V91.392H1020.08V107.52H992.049V124.544H1022.77V144H960.945V55.936ZM1064.33 146.048C1052.3 146.048 1042.15 143.829 1033.87 139.392L1040.27 119.552C1049.06 122.709 1056.91 124.288 1063.82 124.288C1067.58 124.288 1070.31 123.861 1072.01 123.008C1073.81 122.069 1074.7 120.704 1074.7 118.912C1074.7 117.717 1074.23 116.693 1073.29 115.84C1072.36 114.901 1070.48 113.877 1067.66 112.768C1064.85 111.659 1060.62 110.293 1054.99 108.672C1048.08 106.624 1042.7 103.296 1038.86 98.688C1035.02 93.9947 1033.1 88.6187 1033.1 82.56C1033.1 73.1733 1036.17 66.0907 1042.32 61.312C1048.55 56.448 1056.91 54.016 1067.41 54.016C1072.87 54.016 1078.24 54.6133 1083.53 55.808C1088.82 56.9173 1093.52 58.5813 1097.61 60.8L1090.7 80.128C1085.92 78.5067 1081.74 77.3547 1078.16 76.672C1074.66 75.904 1071.25 75.52 1067.92 75.52C1062.29 75.52 1059.47 77.056 1059.47 80.128C1059.47 81.664 1060.37 82.9867 1062.16 84.096C1064.04 85.12 1067.83 86.4427 1073.55 88.064C1082.51 90.4533 1089.29 94.1227 1093.9 99.072C1098.51 103.936 1100.81 109.781 1100.81 116.608C1100.81 126.08 1097.74 133.376 1091.6 138.496C1085.45 143.531 1076.37 146.048 1064.33 146.048ZM1126.52 75.392H1108.21V55.936H1174.64V75.392H1156.34V144H1126.52V75.392Z" fill="black"/>
</svg>
