<svg width="3416" height="540" viewBox="0 0 3416 540" fill="none" xmlns="http://www.w3.org/2000/svg">
<path d="M0 191.941C18.1622 199.585 34.4369 208.143 51.2551 218.39C58.6993 222.88 58.6993 222.88 66.294 227.462C72.5447 231.256 78.7954 235.051 85.2355 238.96C115.138 257.063 115.138 257.063 145.645 275.53C145.645 333.764 145.645 391.998 145.645 451.996C127.483 444.352 111.208 435.794 94.3901 425.548C86.9459 421.057 86.9459 421.057 79.3512 416.476C73.1005 412.681 66.8498 408.887 60.4097 404.977C30.5069 386.875 30.5069 386.875 0 368.407C0 310.174 0 251.94 0 191.941Z" fill="#FCF20B"/>
<path d="M304.531 191.941C305.516 215.9 306.235 239.845 306.713 263.821C306.912 271.967 307.183 280.111 307.528 288.251C310.292 355.252 310.292 355.252 297.374 374.337C286.861 381.869 276.599 386.62 264.81 391.626C256.113 396.837 247.471 402.151 238.881 407.553C229.879 412.903 220.868 418.236 211.848 423.553C207.223 426.306 202.597 429.06 197.832 431.897C163.897 451.996 163.897 451.996 158.886 451.996C158.886 393.763 158.886 335.529 158.886 275.53C219.847 238.96 219.847 238.96 239.032 227.462C244.017 224.468 249.002 221.474 254.138 218.39C256.739 216.833 259.339 215.276 262.018 213.672C298.165 191.941 298.165 191.941 304.531 191.941Z" fill="#0000FA"/>
<path d="M172.126 89.7702C189.528 97.9411 205.723 107.729 221.931 118.256C229.543 123.174 237.243 127.904 244.966 132.626C249.785 135.694 254.604 138.762 259.568 141.923C263.966 144.719 268.364 147.516 272.895 150.397C282.463 159.428 282.463 159.428 284.968 171.278C282.463 182.647 282.463 182.647 275.287 190.04C271.989 192.108 268.69 194.176 265.292 196.306C261.66 198.642 258.027 200.977 254.284 203.383C250.475 205.735 246.666 208.087 242.742 210.51C239.183 212.844 235.625 215.178 231.958 217.582C221.291 224.571 210.521 231.343 199.71 238.083C196.075 240.432 192.439 242.782 188.694 245.203C183.394 248.494 183.394 248.494 177.988 251.851C174.843 253.838 171.698 255.825 168.458 257.872C155.738 262.815 149.693 261.336 136.818 256.948C127.397 251.875 118.157 246.424 109.061 240.731C106.479 239.122 103.897 237.512 101.236 235.854C95.8043 232.458 90.3818 229.046 84.9682 225.618C76.7016 220.389 68.4034 215.219 60.0992 210.056C15.9338 182.365 15.9338 182.365 4.41333 168.715C20.4285 158.958 36.4477 149.208 52.4704 139.465C57.9165 136.152 63.3616 132.836 68.8055 129.519C76.647 124.742 84.4923 119.972 92.3384 115.202C97.0534 112.333 101.768 109.463 106.626 106.507C128.998 93.2154 145.879 83.9581 172.126 89.7702ZM97.0967 147.818C94.0984 149.812 91.1002 151.805 88.0111 153.859C80.6963 158.737 73.4426 163.716 66.2022 168.715C80.3681 185.182 96.3353 196.316 114.475 207.317C118.499 209.908 118.499 209.908 122.604 212.551C134.443 219.767 143.225 224.495 157.058 224.187C170.114 218.808 181.091 211.929 192.814 203.834C197.019 200.967 201.223 198.1 205.555 195.145C216.429 187.657 216.429 187.657 225.088 178.003C225.116 168.683 225.116 168.683 220.674 159.428C212.024 151.313 212.024 151.313 201.365 144.625C197.872 142.261 194.379 139.896 190.78 137.46C155.741 116.439 128.115 126.211 97.0967 147.818Z" fill="url(#paint0_linear_204_169)"/>
<path d="M181.556 125.322C187.17 128.861 187.17 128.861 192.897 132.472C196.7 134.79 200.502 137.108 204.42 139.496C214.224 146.706 221.692 152.217 228.495 163.184C228.441 173.773 228.441 173.773 223.865 184.783C213.934 194.781 213.934 194.781 201.58 204.358C197.539 207.546 193.497 210.734 189.334 214.018C185.448 216.844 181.562 219.67 177.558 222.582C174.484 224.851 171.41 227.12 168.243 229.458C155.217 235.009 149.113 233.044 135.883 227.982C123.421 220.844 111.581 212.732 99.7059 204.358C96.4975 202.2 93.2891 200.042 89.9834 197.819C81.8701 192.151 74.1095 185.81 66.4233 179.383C66.4233 174.037 66.4233 168.692 66.4233 163.184C76.4026 155.862 86.4318 148.693 96.5224 141.584C100.695 138.494 100.695 138.494 104.952 135.341C130.842 117.355 152.209 113.51 181.556 125.322Z" fill="url(#paint1_linear_204_169)"/>
<rect x="158.065" y="270.499" width="63.8136" height="157.082" transform="rotate(-26.4248 158.065 270.499)" fill="white"/>
<path d="M564.84 143.28V192.6H461.88V245.88H538.92V293.76H461.88V396H400.32V143.28H564.84ZM676.755 143.28V396H615.195V143.28H676.755ZM965.447 396H903.887L800.927 240.12V396H739.367V143.28H800.927L903.887 299.88V143.28H965.447V396ZM1185.39 351.36H1091.07L1075.95 396H1011.51L1102.95 143.28H1174.23L1265.67 396H1200.51L1185.39 351.36ZM1169.55 303.84L1138.23 211.32L1107.27 303.84H1169.55ZM1537.58 396H1476.02L1373.06 240.12V396H1311.5V143.28H1373.06L1476.02 299.88V143.28H1537.58V396ZM1589.76 269.28C1589.76 244.32 1595.16 222.12 1605.96 202.68C1616.76 183 1631.76 167.76 1650.96 156.96C1670.4 145.92 1692.36 140.4 1716.84 140.4C1746.84 140.4 1772.52 148.32 1793.88 164.16C1815.24 180 1829.52 201.6 1836.72 228.96H1769.04C1764 218.4 1756.8 210.36 1747.44 204.84C1738.32 199.32 1727.88 196.56 1716.12 196.56C1697.16 196.56 1681.8 203.16 1670.04 216.36C1658.28 229.56 1652.4 247.2 1652.4 269.28C1652.4 291.36 1658.28 309 1670.04 322.2C1681.8 335.4 1697.16 342 1716.12 342C1727.88 342 1738.32 339.24 1747.44 333.72C1756.8 328.2 1764 320.16 1769.04 309.6H1836.72C1829.52 336.96 1815.24 358.56 1793.88 374.4C1772.52 390 1746.84 397.8 1716.84 397.8C1692.36 397.8 1670.4 392.4 1650.96 381.6C1631.76 370.56 1616.76 355.32 1605.96 335.88C1595.16 316.44 1589.76 294.24 1589.76 269.28ZM1953.98 192.6V243.72H2036.42V291.24H1953.98V346.68H2047.22V396H1892.42V143.28H2047.22V192.6H1953.98ZM2189.04 269.28C2189.04 244.32 2194.44 222.12 2205.24 202.68C2216.04 183 2231.04 167.76 2250.24 156.96C2269.68 145.92 2291.64 140.4 2316.12 140.4C2346.12 140.4 2371.8 148.32 2393.16 164.16C2414.52 180 2428.8 201.6 2436 228.96H2368.32C2363.28 218.4 2356.08 210.36 2346.72 204.84C2337.6 199.32 2327.16 196.56 2315.4 196.56C2296.44 196.56 2281.08 203.16 2269.32 216.36C2257.56 229.56 2251.68 247.2 2251.68 269.28C2251.68 291.36 2257.56 309 2269.32 322.2C2281.08 335.4 2296.44 342 2315.4 342C2327.16 342 2337.6 339.24 2346.72 333.72C2356.08 328.2 2363.28 320.16 2368.32 309.6H2436C2428.8 336.96 2414.52 358.56 2393.16 374.4C2371.8 390 2346.12 397.8 2316.12 397.8C2291.64 397.8 2269.68 392.4 2250.24 381.6C2231.04 370.56 2216.04 355.32 2205.24 335.88C2194.44 316.44 2189.04 294.24 2189.04 269.28ZM2710.58 143.28V396H2649.02V291.96H2553.26V396H2491.7V143.28H2553.26V242.28H2649.02V143.28H2710.58ZM2834.58 192.6V243.72H2917.02V291.24H2834.58V346.68H2927.82V396H2773.02V143.28H2927.82V192.6H2834.58ZM3077.22 398.52C3058.74 398.52 3042.18 395.52 3027.54 389.52C3012.9 383.52 3001.14 374.64 2992.26 362.88C2983.62 351.12 2979.06 336.96 2978.58 320.4H3044.1C3045.06 329.76 3048.3 336.96 3053.82 342C3059.34 346.8 3066.54 349.2 3075.42 349.2C3084.54 349.2 3091.74 347.16 3097.02 343.08C3102.3 338.76 3104.94 332.88 3104.94 325.44C3104.94 319.2 3102.78 314.04 3098.46 309.96C3094.38 305.88 3089.22 302.52 3082.98 299.88C3076.98 297.24 3068.34 294.24 3057.06 290.88C3040.74 285.84 3027.42 280.8 3017.1 275.76C3006.78 270.72 2997.9 263.28 2990.46 253.44C2983.02 243.6 2979.3 230.76 2979.3 214.92C2979.3 191.4 2987.82 173.04 3004.86 159.84C3021.9 146.4 3044.1 139.68 3071.46 139.68C3099.3 139.68 3121.74 146.4 3138.78 159.84C3155.82 173.04 3164.94 191.52 3166.14 215.28H3099.54C3099.06 207.12 3096.06 200.76 3090.54 196.2C3085.02 191.4 3077.94 189 3069.3 189C3061.86 189 3055.86 191.04 3051.3 195.12C3046.74 198.96 3044.46 204.6 3044.46 212.04C3044.46 220.2 3048.3 226.56 3055.98 231.12C3063.66 235.68 3075.66 240.6 3091.98 245.88C3108.3 251.4 3121.5 256.68 3131.58 261.72C3141.9 266.76 3150.78 274.08 3158.22 283.68C3165.66 293.28 3169.38 305.64 3169.38 320.76C3169.38 335.16 3165.66 348.24 3158.22 360C3151.02 371.76 3140.46 381.12 3126.54 388.08C3112.62 395.04 3096.18 398.52 3077.22 398.52ZM3407.07 143.28V192.6H3340.11V396H3278.55V192.6H3211.59V143.28H3407.07Z" fill="white"/>
<defs>
<linearGradient id="paint0_linear_204_169" x1="144.69" y1="88" x2="144.69" y2="260.966" gradientUnits="userSpaceOnUse">
<stop offset="0.314517" stop-color="#F6D745"/>
<stop offset="0.500014" stop-color="white"/>
<stop offset="0.624517" stop-color="#F6D745"/>
</linearGradient>
<linearGradient id="paint1_linear_204_169" x1="147.459" y1="118.555" x2="147.459" y2="232.802" gradientUnits="userSpaceOnUse">
<stop offset="0.174517" stop-color="#F6D745"/>
<stop offset="0.459517" stop-color="white"/>
<stop offset="0.504517" stop-color="white"/>
<stop offset="0.714517" stop-color="#EECA42"/>
</linearGradient>
</defs>
</svg>
